mtllib model_0.mtl
o model_0
v -8.582679748535156 0.48962897062301636 4.960599899291992 
v -7.007880210876465 0.48962897062301636 7.007840156555176 
v -9.685040473937988 0.48962897062301636 2.598400115966797 
v -7.007880210876465 0.7094693779945374 4.015719890594482 
v -7.165359973907471 0.8093968033790588 1.1810799837112427 
v -4.645679950714111 0.8093968033790588 5.590519905090332 
v -4.330719947814941 1.0625463724136353 2.440920114517212 
v -2.125999927520752 1.1225028038024902 3.7007598876953125 
v -4.330719947814941 1.1225028038024902 0.07872000336647034 
v -2.125999927520752 1.2624013423919678 1.1810799837112427 
v -2.125999927520752 1.2624013423919678 -1.1811199188232422 
v 0.07872000336647034 1.2624013423919678 2.440920114517212 
v -0.07876000553369522 1.335681438446045 0.07872000336647034 
v 2.125959873199463 1.2624013423919678 -1.1811199188232422 
v -0.07876000553369522 1.2624013423919678 -2.440959930419922 
v -2.125999927520752 1.1225028038024902 -3.7007999420166016 
v 2.125959873199463 1.1225028038024902 -3.7007999420166016 
v -0.07876000553369522 1.0625463724136353 -4.960639953613281 
v 2.440920114517212 0.8093968033790588 -6.850399971008301 
v -2.440959930419922 0.8093968033790588 -6.850399971008301 
v -0.07876000553369522 0.7094693779945374 -8.11023998260498 
v -2.598440170288086 0.48962897062301636 -9.685040473937988 
v 2.598400115966797 0.48962897062301636 -9.685040473937988 
v -0.07876000553369522 0.48962897062301636 -10 
v -2.283479928970337 0.8493678569793701 6.535400390625 
v 0.07872000336647034 0.7827495336532593 7.480279922485352 
v 0.07872000336647034 1.0625463724136353 4.960599899291992 
v 2.125959873199463 1.1225028038024902 3.7007598876953125 
v 2.125959873199463 1.2624013423919678 1.1810799837112427 
v 4.330679893493652 1.1225028038024902 -0.07876000553369522 
v 4.330679893493652 1.0625463724136353 -2.440959930419922 
v 6.535400390625 0.7827495336532593 -3.7007999420166016 
v 4.488160133361816 0.8493678569793701 -5.275599956512451 
v 7.007840156555176 0.48962897062301636 -7.007880210876465 
v 4.960599899291992 0.48962897062301636 -8.582679748535156 
v -2.598440170288086 0.48962897062301636 9.6850004196167 
v -4.960639953613281 0.48962897062301636 8.582640647888184 
v 0.07872000336647034 0.48962897062301636 9.999959945678711 
v 2.598400115966797 0.48962897062301636 9.6850004196167 
v 2.283439874649048 0.8493678569793701 6.535400390625 
v 4.645639896392822 0.8093968033790588 5.590519905090332 
v 4.330679893493652 1.0625463724136353 2.440920114517212 
v 7.165319919586182 0.8093968033790588 1.1810799837112427 
v 6.850359916687012 0.8493678569793701 -1.1811199188232422 
v 9.6850004196167 0.48962897062301636 -2.598440170288086 
v 8.582640647888184 0.48962897062301636 -4.960639953613281 
v 4.960599899291992 0.48962897062301636 8.582640647888184 
v 7.007840156555176 0.48962897062301636 7.007840156555176 
v 7.007840156555176 0.7094693779945374 4.015719890594482 
v 9.6850004196167 0.48962897062301636 2.598400115966797 
v 9.999959945678711 0.48962897062301636 -0.07876000553369522 
v -10 0.48962897062301636 0.07872000336647034 
v -9.685040473937988 0.48962897062301636 -2.598440170288086 
v -6.850399971008301 0.8493678569793701 -1.1811199188232422 
v -6.535439968109131 0.7827495336532593 -3.7007999420166016 
v -4.330719947814941 1.0625463724136353 -2.440959930419922 
v -8.582679748535156 0.48962897062301636 -4.960639953613281 
v -7.007880210876465 0.48962897062301636 -7.007880210876465 
v -4.4882001876831055 0.8493678569793701 -5.275599956512451 
v -4.960639953613281 0.48962897062301636 -8.582679748535156 
v 8.582640647888184 0.48962897062301636 4.960599899291992 
vn -0.009984171018004417 0.09932553768157959 0.005895258858799934 
vn -0.008672039955854416 0.09936250746250153 0.007203252520412207 
vn -0.010543891228735447 0.09935595095157623 0.004149730317294598 
vn -0.009986652061343193 0.0993502214550972 0.00545902457088232 
vn -0.010549934580922127 0.09941290318965912 0.0024029340129345655 
vn -0.007161937654018402 0.09941583126783371 0.00807457510381937 
vn -0.008485140278935432 0.09951268881559372 0.005022686440497637 
vn -0.004904209636151791 0.09958712011575699 0.007638986222445965 
vn -0.00904986634850502 0.09958942234516144 0.0002184694167226553 
vn -0.00452776625752449 0.09985707700252533 0.002839722903445363 
vn -0.003774325828999281 0.09990940243005753 -0.0019660997204482555 
vn -1.0332247651044252e-14 0.09991385787725449 0.004149730317294598 
vn -1.0341130485562108e-14 0.09999976307153702 -0.0002184694167226553 
vn 0.003774325828999281 0.09990940243005753 -0.0019660997204482555 
vn -0.00018874285160563886 0.09985070675611496 -0.00545902457088232 
vn -0.004150191321969032 0.09962139278650284 -0.007638986222445965 
vn 0.004150191321969032 0.09962139278650284 -0.007638986222445965 
vn -1.029122161024399e-14 0.09951712936162949 -0.009815302677452564 
vn 0.0030189042445272207 0.0994274765253067 -0.010250037536025047 
vn -0.0030189042445272207 0.0994274765253067 -0.010250037536025047 
vn -0.00018876121612265706 0.09937974810600281 -0.01111890934407711 
vn -0.001698769279755652 0.09936540573835373 -0.01111890934407711 
vn 0.002076223725453019 0.09935823827981949 -0.01111890934407711 
vn -0.00018866713799070567 0.09933021664619446 -0.011553032323718071 
vn -0.0037733044009655714 0.09940170496702194 0.010250037536025047 
vn -0.00018876121612265706 0.09937974810600281 0.01111890934407711 
vn 0.00018879337585531175 0.09963706135749817 0.008510008454322815 
vn 0.004904209636151791 0.09958712011575699 0.007638986222445965 
vn 0.00452776625752449 0.09985707700252533 0.002839722903445363 
vn 0.00904986634850502 0.09958942234516144 0.0002184694167226553 
vn 0.007538230158388615 0.09962908923625946 -0.004149730317294598 
vn 0.009610988199710846 0.0993872657418251 -0.00545902457088232 
vn 0.006979638244956732 0.09939247369766235 -0.008510008454322815 
vn 0.007732749916613102 0.09933672100305557 -0.008510008454322815 
vn 0.004527487326413393 0.09937021136283875 -0.010250037536025047 
vn -0.0037715695798397064 0.09935600310564041 0.010684574954211712 
vn -0.006597749888896942 0.09934021532535553 0.009380380623042583 
vn -0.00018866713799070567 0.09933021664619446 0.011553032323718071 
vn 0.0037715695798397064 0.09935600310564041 0.010684574954211712 
vn 0.0037733044009655714 0.09940170496702194 0.010250037536025047 
vn 0.007161937654018402 0.09941583126783371 0.00807457510381937 
vn 0.00886128656566143 0.09947989881038666 0.005022686440497637 
vn 0.010549934580922127 0.09941290318965912 0.0024029340129345655 
vn 0.010551747865974903 0.09942997992038727 -0.00152922747656703 
vn 0.011300383135676384 0.09933039546012878 -0.0024029340129345655 
vn 0.009608601219952106 0.0993625670671463 -0.005895258858799934 
vn 0.006221241783350706 0.0993645042181015 0.009380380623042583 
vn 0.008672039955854416 0.09936250746250153 0.007203252520412207 
vn 0.009610988199710846 0.0993872657418251 0.00545902457088232 
vn 0.010543891228735447 0.09935595095157623 0.004149730317294598 
vn 0.011302972212433815 0.09935315698385239 0.0010923261288553476 
vn -0.011302972212433815 0.09935315698385239 0.0010923261288553476 
vn -0.011300383135676384 0.09933039546012878 -0.0024029340129345655 
vn -0.010551747865974903 0.09942997992038727 -0.00152922747656703 
vn -0.00923518743366003 0.099422886967659 -0.00545902457088232 
vn -0.007538230158388615 0.09962908923625946 -0.004149730317294598 
vn -0.009984171018004417 0.09932553768157959 -0.005895258858799934 
vn -0.007356247399002314 0.09936530888080597 -0.008510008454322815 
vn -0.006602930370718241 0.09941820800304413 -0.008510008454322815 
vn -0.004527487326413393 0.09937021136283875 -0.010250037536025047 
vn 0.009608601219952106 0.0993625670671463 0.005895258858799934 
vt -0.40162843465805054 -0.02054007165133953 
vt -0.23615334928035736 -0.23615334928035736 
vt -0.5056540369987488 0.23053215444087982 
vt -0.22852776944637299 0.07935502380132675 
vt -0.24593950808048248 0.36988961696624756 
vt 0.014283410273492336 -0.08097279071807861 
vt 0.04917043820023537 0.23974639177322388 
vt 0.27456986904144287 0.1096031591296196 
vt 0.04917043820023537 0.4999693036079407 
vt 0.27456986904144287 0.36988961696624756 
vt 0.27456986904144287 0.6301125288009644 
vt 0.4999693036079407 0.23974639177322388 
vt 0.4999693036079407 0.4999693036079407 
vt 0.725432276725769 0.6301125288009644 
vt 0.4999693036079407 0.760255753993988 
vt 0.27456986904144287 0.8903989791870117 
vt 0.725432276725769 0.8903989791870117 
vt 0.4999693036079407 1.0205422639846802 
vt 0.760255753993988 1.211118221282959 
vt 0.23974639177322388 1.211118221282959 
vt 0.4999693036079407 1.341261386871338 
vt 0.23053215444087982 1.5056562423706055 
vt 0.7694700360298157 1.5056562423706055 
vt 0.4999693036079407 1.541115164756775 
vt 0.2571581304073334 -0.18086789548397064 
vt 0.4999693036079407 -0.28082653880119324 
vt 0.4999693036079407 -0.02054007165133953 
vt 0.725432276725769 0.1096031591296196 
vt 0.725432276725769 0.36988961696624756 
vt 0.9508317112922668 0.5000328421592712 
vt 0.9508317112922668 0.760255753993988 
vt 1.1762311458587646 0.8903989791870117 
vt 0.9682434797286987 1.0507267713546753 
vt 1.2361555099487305 1.2361555099487305 
vt 1.0205422639846802 1.4016306400299072 
vt 0.23053215444087982 -0.5056540369987488 
vt -0.02054007165133953 -0.40162843465805054 
vt 0.5000328421592712 -0.541113018989563 
vt 0.7694700360298157 -0.5056540369987488 
vt 0.7428440451622009 -0.18086789548397064 
vt 0.9857187271118164 -0.08097279071807861 
vt 0.9508317112922668 0.23974639177322388 
vt 1.2459416389465332 0.36988961696624756 
vt 1.211118221282959 0.6301125288009644 
vt 1.5056562423706055 0.7694700360298157 
vt 1.4016306400299072 1.0205422639846802 
vt 1.0205422639846802 -0.40162843465805054 
vt 1.2361555099487305 -0.23615334928035736 
vt 1.228529930114746 0.07935502380132675 
vt 1.5056562423706055 0.23053215444087982 
vt 1.541115164756775 0.5000328421592712 
vt -0.541113018989563 0.4999693036079407 
vt -0.5056540369987488 0.7694700360298157 
vt -0.2111160308122635 0.6301125288009644 
vt -0.17622900009155273 0.8903989791870117 
vt 0.04917043820023537 0.760255753993988 
vt -0.40162843465805054 1.0205422639846802 
vt -0.23615334928035736 1.2361555099487305 
vt 0.03175869584083557 1.0507267713546753 
vt -0.02054007165133953 1.4016306400299072 
vt 1.4016306400299072 -0.02054007165133953 
s on 
f 1/1/1 2/2/2 3/3/3 
f 2/2/2 4/4/4 3/3/3 
f 3/3/3 4/4/4 5/5/5 
f 4/4/4 6/6/6 5/5/5 
f 5/5/5 6/6/6 7/7/7 
f 6/6/6 8/8/8 7/7/7 
f 7/7/7 8/8/8 9/9/9 
f 8/8/8 10/10/10 9/9/9 
f 9/9/9 10/10/10 11/11/11 
f 10/10/10 12/12/12 11/11/11 
f 11/11/11 12/12/12 13/13/13 
f 12/12/12 14/14/14 13/13/13 
f 13/13/13 14/14/14 11/11/11 
f 14/14/14 15/15/15 11/11/11 
f 11/11/11 15/15/15 16/16/16 
f 15/15/15 17/17/17 16/16/16 
f 16/16/16 17/17/17 18/18/18 
f 17/17/17 19/19/19 18/18/18 
f 18/18/18 19/19/19 20/20/20 
f 19/19/19 21/21/21 20/20/20 
f 20/20/20 21/21/21 22/22/22 
f 21/21/21 23/23/23 22/22/22 
f 22/22/22 23/23/23 24/24/24 
f 23/23/23 24/24/24 24/24/24 
f 24/24/24 24/24/24 6/6/6 
f 24/24/24 6/6/6 6/6/6 
f 6/6/6 6/6/6 6/6/6 
f 6/6/6 25/25/25 6/6/6 
f 6/6/6 25/25/25 8/8/8 
f 25/25/25 26/26/26 8/8/8 
f 8/8/8 26/26/26 27/27/27 
f 26/26/26 28/28/28 27/27/27 
f 27/27/27 28/28/28 12/12/12 
f 28/28/28 29/29/29 12/12/12 
f 12/12/12 29/29/29 14/14/14 
f 29/29/29 30/30/30 14/14/14 
f 14/14/14 30/30/30 31/31/31 
f 30/30/30 32/32/32 31/31/31 
f 31/31/31 32/32/32 17/17/17 
f 32/32/32 33/33/33 17/17/17 
f 17/17/17 33/33/33 19/19/19 
f 33/33/33 34/34/34 19/19/19 
f 19/19/19 34/34/34 35/35/35 
f 34/34/34 35/35/35 35/35/35 
f 35/35/35 35/35/35 26/26/26 
f 35/35/35 26/26/26 26/26/26 
f 26/26/26 26/26/26 26/26/26 
f 26/26/26 25/25/25 26/26/26 
f 26/26/26 25/25/25 36/36/36 
f 25/25/25 6/6/6 36/36/36 
f 36/36/36 6/6/6 37/37/37 
f 6/6/6 2/2/2 37/37/37 
f 37/37/37 2/2/2 2/2/2 
f 2/2/2 36/36/36 2/2/2 
f 2/2/2 36/36/36 36/36/36 
f 36/36/36 38/38/38 36/36/36 
f 36/36/36 38/38/38 26/26/26 
f 38/38/38 39/39/39 26/26/26 
f 26/26/26 39/39/39 40/40/40 
f 39/39/39 41/41/41 40/40/40 
f 40/40/40 41/41/41 28/28/28 
f 41/41/41 42/42/42 28/28/28 
f 28/28/28 42/42/42 30/30/30 
f 42/42/42 43/43/43 30/30/30 
f 30/30/30 43/43/43 44/44/44 
f 43/43/43 45/45/45 44/44/44 
f 44/44/44 45/45/45 32/32/32 
f 45/45/45 46/46/46 32/32/32 
f 32/32/32 46/46/46 34/34/34 
f 46/46/46 34/34/34 34/34/34 
f 34/34/34 34/34/34 39/39/39 
f 34/34/34 39/39/39 39/39/39 
f 39/39/39 39/39/39 39/39/39 
f 39/39/39 47/47/47 39/39/39 
f 39/39/39 47/47/47 41/41/41 
f 47/47/47 48/48/48 41/41/41 
f 41/41/41 48/48/48 49/49/49 
f 48/48/48 50/50/50 49/49/49 
f 49/49/49 50/50/50 43/43/43 
f 50/50/50 51/51/51 43/43/43 
f 43/43/43 51/51/51 45/45/45 
f 51/51/51 45/45/45 45/45/45 
f 45/45/45 45/45/45 49/49/49 
f 45/45/45 49/49/49 49/49/49 
f 49/49/49 49/49/49 49/49/49 
f 49/49/49 43/43/43 49/49/49 
f 49/49/49 43/43/43 41/41/41 
f 43/43/43 42/42/42 41/41/41 
f 41/41/41 42/42/42 42/42/42 
f 42/42/42 3/3/3 42/42/42 
f 42/42/42 3/3/3 3/3/3 
f 3/3/3 5/5/5 3/3/3 
f 3/3/3 5/5/5 52/52/52 
f 5/5/5 53/53/53 52/52/52 
f 52/52/52 53/53/53 53/53/53 
f 53/53/53 5/5/5 53/53/53 
f 53/53/53 5/5/5 54/54/54 
f 5/5/5 9/9/9 54/54/54 
f 54/54/54 9/9/9 55/55/55 
f 9/9/9 56/56/56 55/55/55 
f 55/55/55 56/56/56 16/16/16 
f 56/56/56 11/11/11 16/16/16 
f 16/16/16 11/11/11 11/11/11 
f 11/11/11 54/54/54 11/11/11 
f 11/11/11 54/54/54 54/54/54 
f 54/54/54 55/55/55 54/54/54 
f 54/54/54 55/55/55 53/53/53 
f 55/55/55 57/57/57 53/53/53 
f 53/53/53 57/57/57 57/57/57 
f 57/57/57 55/55/55 57/57/57 
f 57/57/57 55/55/55 58/58/58 
f 55/55/55 59/59/59 58/58/58 
f 58/58/58 59/59/59 20/20/20 
f 59/59/59 16/16/16 20/20/20 
f 20/20/20 16/16/16 18/18/18 
f 16/16/16 18/18/18 18/18/18 
f 18/18/18 18/18/18 58/58/58 
f 18/18/18 58/58/58 58/58/58 
f 58/58/58 58/58/58 58/58/58 
f 58/58/58 20/20/20 58/58/58 
f 58/58/58 20/20/20 60/60/60 
f 20/20/20 22/22/22 60/60/60 
f 60/60/60 22/22/22 22/22/22 
f 22/22/22 21/21/21 22/22/22 
f 22/22/22 21/21/21 21/21/21 
f 21/21/21 19/19/19 21/21/21 
f 21/21/21 19/19/19 23/23/23 
f 19/19/19 35/35/35 23/23/23 
f 23/23/23 35/35/35 35/35/35 
f 35/35/35 10/10/10 35/35/35 
f 35/35/35 10/10/10 10/10/10 
f 10/10/10 8/8/8 10/10/10 
f 10/10/10 8/8/8 12/12/12 
f 8/8/8 27/27/27 12/12/12 
f 12/12/12 27/27/27 27/27/27 
f 27/27/27 31/31/31 27/27/27 
f 27/27/27 31/31/31 31/31/31 
f 31/31/31 17/17/17 31/31/31 
f 31/31/31 17/17/17 14/14/14 
f 17/17/17 15/15/15 14/14/14 
f 5/5/5 7/7/7 9/9/9 
f 2/2/2 6/6/6 4/4/4 
f 11/11/11 56/56/56 9/9/9 
f 28/28/28 26/26/26 40/40/40 
f 48/48/48 61/61/61 50/50/50 
f 32/32/32 30/30/30 44/44/44 
f 28/28/28 30/30/30 29/29/29 
f 32/32/32 34/34/34 33/33/33 
f 55/55/55 16/16/16 59/59/59 

